<?xml version="1.0" encoding="utf-8"?>
<!-- Generator: Adobe Illustrator 24.0.3, SVG Export Plug-In . SVG Version: 6.00 Build 0)  -->
<svg version="1.1" id="AW" xmlns="http://www.w3.org/2000/svg" xmlns:xlink="http://www.w3.org/1999/xlink" x="0px" y="0px"
	 viewBox="0 0 622.8 252" style="enable-background:new 0 0 622.8 252;" xml:space="preserve">
<g>
	<path d="M69.21,136.4c-2.92-5.19-6.69-10.79-11.32-16.79l-10.22-13.26c-4.54-6-8.01-12.88-10.4-20.63
		c-2.39-7.75-3.59-16.08-3.59-25.01c0-5.35,0.77-10.81,2.31-16.37c1.54-5.56,3.81-10.2,6.81-13.93c3-3.73,6.49-5.6,10.47-5.6
		c3.16,0,5.98,1.38,8.46,4.14c2.47,2.76,4.58,6.82,6.33,12.17c1.74,5.35,3.1,11.97,4.08,19.84h0.97V22.38
		c-3.16-1.54-6.21-2.66-9.13-3.35C61.06,18.35,58.02,18,54.85,18c-7.14,0-13.51,2.54-19.11,7.61c-5.6,5.07-9.94,12.09-13.02,21.05
		c-3.08,8.97-4.62,19.13-4.62,30.48c0,8.03,0.81,15.15,2.43,21.36c1.62,6.21,3.91,11.91,6.88,17.1c2.96,5.19,6.92,10.91,11.87,17.16
		l9.86,12.41c4.54,5.76,7.99,12.31,10.34,19.65c2.35,7.34,3.53,15.35,3.53,24.03c0,7.71-0.81,14.44-2.43,20.2
		c-1.62,5.76-3.98,10.22-7.06,13.39c-3.08,3.16-6.69,4.75-10.83,4.75c-5.35,0-10.02-3.12-13.99-9.37
		c-3.98-6.25-7.06-15.66-9.25-28.23h-0.97v38.33c2.76,1.87,6.08,3.35,9.98,4.44c3.89,1.09,7.79,1.64,11.68,1.64
		c8.11,0,15.05-2.43,20.81-7.3c5.76-4.87,10.14-11.66,13.14-20.38c3-8.72,4.5-18.8,4.5-30.24c0-8.35-0.83-15.76-2.49-22.21
		C74.42,147.42,72.13,141.6,69.21,136.4z"/>
	<path d="M171.64,50.8c-1.34-1.5-3.14-2.94-5.41-4.32l-6.82-4.02c-2.19-1.54-3.75-3.18-4.69-4.93c-0.93-1.74-1.4-3.67-1.4-5.78
		c0-1.62,0.37-3.12,1.1-4.5c0.73-1.38,1.7-2.49,2.92-3.35c1.22-0.85,2.64-1.28,4.26-1.28c1.54,0,2.94,0.39,4.2,1.16
		c1.26,0.77,2.43,1.91,3.53,3.41c1.09,1.5,2.13,3.47,3.1,5.9h0.36V21.41c-1.7-0.81-3.45-1.42-5.23-1.83
		c-1.79-0.4-3.69-0.61-5.72-0.61c-3.16,0-5.96,0.75-8.4,2.25c-2.43,1.5-4.32,3.51-5.66,6.02c-1.34,2.52-2.01,5.31-2.01,8.4
		c0,2.35,0.32,4.46,0.97,6.33c0.65,1.87,1.66,3.59,3.04,5.17c1.38,1.58,3.16,3.06,5.35,4.44l6.57,4.02c2.19,1.46,3.77,3,4.75,4.62
		c0.97,1.62,1.46,3.57,1.46,5.84c0,1.87-0.35,3.49-1.03,4.87c-0.69,1.38-1.69,2.48-2.98,3.29c-1.3,0.81-2.84,1.22-4.62,1.22
		c-2.6,0-5.01-0.93-7.24-2.8c-2.23-1.87-4.24-4.75-6.02-8.64h-0.36v11.56c2.03,1.14,4.16,2.01,6.39,2.62
		c2.23,0.61,4.52,0.91,6.88,0.91c3.24,0,6.15-0.71,8.7-2.13c2.56-1.42,4.52-3.43,5.9-6.02c1.38-2.6,2.07-5.52,2.07-8.76
		c0-2.43-0.33-4.56-0.97-6.39C173.97,53.96,172.98,52.3,171.64,50.8z"/>
	<path d="M208.22,20.19c1.05,0.73,1.56,1.72,1.52,2.98c-0.04,1.26-0.55,2.98-1.52,5.17l-7.48,18.29l-7.37-18.42
		c-0.89-1.95-1.34-3.59-1.34-4.93c0-1.34,0.57-2.37,1.7-3.1v-0.37h-15.09v0.37c0.89,0.49,1.7,1.2,2.43,2.13
		c0.73,0.93,1.38,1.93,1.95,2.98c0.57,1.06,1.18,2.27,1.83,3.65l10.1,24.84V69.6c0,2.35-0.29,4.14-0.85,5.35
		c-0.57,1.22-1.46,2.23-2.68,3.04v0.24h15.09v-0.24c-1.22-0.73-2.07-1.72-2.56-2.98c-0.49-1.26-0.73-3.06-0.73-5.41V51.81
		l9.13-22.62c0.65-1.38,1.32-2.63,2.01-3.77c0.69-1.14,1.44-2.13,2.25-2.98c0.81-0.85,1.74-1.6,2.8-2.25v-0.37h-11.2V20.19z"/>
	<path d="M249.45,66.47l-13.73-46.65h-13.39v0.24c0.97,0.57,1.74,1.22,2.31,1.95c0.57,0.73,0.95,1.7,1.16,2.92
		c0.2,1.22,0.3,2.68,0.3,4.38v45.03c0,2.43-0.3,4.32-0.91,5.66c-0.61,1.34-1.56,2.41-2.86,3.23v0.24h11.8v-0.24
		c-1.22-0.81-2.11-1.87-2.68-3.16c-0.57-1.3-0.85-3.2-0.85-5.72V33.11l14.97,50.36h3.89l14.36-50.31v41.19
		c0,2.43-0.29,4.32-0.85,5.66c-0.57,1.34-1.5,2.41-2.8,3.23v0.24h15.7v-0.24c-1.3-0.81-2.23-1.89-2.8-3.23
		c-0.57-1.34-0.85-3.22-0.85-5.66V29.07c0-1.62,0.1-3.02,0.3-4.2c0.2-1.17,0.59-2.15,1.16-2.92c0.57-0.77,1.3-1.4,2.19-1.89v-0.24
		h-13.02L249.45,66.47z"/>
	<path d="M309.51,22.26c-2.76-1.62-5.96-2.43-9.61-2.43h-16.55v0.37c1.54,0.81,2.62,1.95,3.23,3.41c0.61,1.46,0.91,3.57,0.91,6.33
		v50.74c0,2.76-0.3,4.83-0.91,6.21c-0.61,1.38-1.69,2.52-3.23,3.41v0.37H301v-0.37c-1.7-0.73-2.9-1.83-3.59-3.29
		c-0.69-1.46-1.03-3.65-1.03-6.57V60.47h3.53c3.65,0,6.86-0.81,9.61-2.43c2.76-1.62,4.91-3.97,6.45-7.06
		c1.54-3.08,2.31-6.69,2.31-10.83c0-4.14-0.77-7.75-2.31-10.83C314.42,26.24,312.27,23.88,309.51,22.26z M307.69,48.91
		c-0.81,2.52-1.97,4.42-3.47,5.72c-1.5,1.3-3.27,1.95-5.29,1.95h-2.56V23.72h2.56c2.03,0,3.79,0.65,5.29,1.95
		c1.5,1.3,2.66,3.18,3.47,5.66c0.81,2.48,1.22,5.42,1.22,8.82C308.91,43.48,308.5,46.4,307.69,48.91z"/>
	<path d="M428.06,25.85c-4.42-4.83-9.67-7.24-15.76-7.24c-6.08,0-11.38,2.42-15.88,7.24c-4.5,4.83-7.95,11.8-10.34,20.93
		c-2.39,9.13-3.59,19.94-3.59,32.43c0,12.41,1.2,23.18,3.59,32.31c2.39,9.13,5.84,16.11,10.34,20.93c4.5,4.83,9.8,7.24,15.88,7.24
		c6.08,0,11.34-2.41,15.76-7.24c4.42-4.83,7.85-11.78,10.28-20.87c2.43-9.09,3.65-19.88,3.65-32.37c0-12.49-1.22-23.3-3.65-32.43
		S432.48,30.68,428.06,25.85z M426.73,108.29c-1.34,8.36-3.25,14.81-5.72,19.35c-2.48,4.54-5.38,6.82-8.7,6.82
		c-3.41,0-6.35-2.27-8.82-6.82c-2.48-4.54-4.38-10.99-5.72-19.35c-1.34-8.35-2.01-18.05-2.01-29.08c0-11.11,0.67-20.85,2.01-29.21
		c1.34-8.35,3.24-14.8,5.72-19.35c2.47-4.54,5.41-6.81,8.82-6.81c3.33,0,6.23,2.27,8.7,6.81c2.47,4.54,4.38,10.99,5.72,19.35
		c1.34,8.36,2.01,18.09,2.01,29.21C428.73,90.24,428.06,99.94,426.73,108.29z"/>
	<path d="M578.05,19.83v0.61c3.41,1.54,5.52,3.83,6.33,6.88c0.81,3.04,0.53,7.53-0.85,13.45l-18.74,77.4h-0.61l-17.65-76.66
		c-1.38-6-1.54-10.55-0.49-13.63c1.05-3.08,3.73-5.52,8.03-7.3v-0.73h-34.34h-2.66h-20.71v0.61c2.68,0.89,4.72,2.64,6.15,5.23
		c1.42,2.6,2.13,6.04,2.13,10.34v96.5h-0.36L467.04,19.83h-16.43l4.38,12.9V159.4c0,4.3-0.65,7.75-1.95,10.34
		c-1.3,2.6-3.29,4.34-5.96,5.23v0.61h23v-0.61c-2.68-0.89-4.67-2.62-5.96-5.17c-1.3-2.56-1.95-6.02-1.95-10.4V52.8h0.36
		l40.89,122.79h8.4V36.01c0-4.38,0.65-7.85,1.95-10.4c1.04-2.04,2.52-3.54,4.44-4.52c2.15,1.07,3.9,2.41,5.25,4.04
		c1.58,1.91,2.86,4.22,3.83,6.94c0.97,2.72,2.03,6.47,3.16,11.26l23.24,99.81v68.49c0,5.6-0.87,10.06-2.62,13.39
		c-1.75,3.33-4.36,5.48-7.85,6.45v0.73h37.36v-0.73c-3.49-0.97-6.1-3.12-7.85-6.45c-1.75-3.33-2.62-7.79-2.62-13.39v-81.36
		l21.42-87.78c1.05-4.38,2.05-7.89,2.98-10.53c0.93-2.64,2.21-4.93,3.83-6.88c1.62-1.95,3.73-3.45,6.33-4.5v-0.73H578.05z"/>
	<path d="M85.18,20.43c2.11,0.81,3.73,2.05,4.87,3.71c1.14,1.66,1.89,3.59,2.25,5.78c0.37,2.19,0.55,5.03,0.55,8.52v116.58
		c0,4.71-0.57,8.34-1.7,10.89c-1.14,2.56-3.12,4.4-5.96,5.54v0.61h29.98v-0.61c-3.25-0.97-5.5-2.8-6.75-5.48
		c-1.26-2.68-1.89-6.53-1.89-11.56v-55h9.25c4.7,0,8.13,1.24,10.28,3.71c2.15,2.48,3.63,6.51,4.44,12.11h0.73V77.51h-0.73
		c-0.49,4.14-1.3,7.34-2.43,9.61c-1.14,2.27-2.68,3.92-4.62,4.93c-1.95,1.02-4.5,1.52-7.67,1.52h-9.25v-67.9h11.2
		c3.89,0,7,0.59,9.31,1.76c2.31,1.18,4.14,3.12,5.48,5.84c1.34,2.72,2.41,6.67,3.23,11.87h0.73V19.83H85.18V20.43z"/>
	<path d="M354.88,20.19c1.46,0.65,2.54,1.76,3.22,3.35c0.69,1.58,1.03,3.83,1.03,6.75v28.48h-21.08V30.29c0-2.92,0.37-5.17,1.1-6.75
		c0.73-1.58,1.87-2.7,3.41-3.35v-0.37h-18.91v0.37c1.62,0.65,2.8,1.76,3.53,3.35c0.73,1.58,1.09,3.83,1.09,6.75v62.06
		c0,2.84-0.36,5.05-1.09,6.63c-0.73,1.58-1.91,2.78-3.53,3.59v0.36h18.91v-0.36c-1.54-0.73-2.68-1.93-3.41-3.59
		c-0.73-1.66-1.1-3.87-1.1-6.63V63.26h21.08v29.08c0,2.76-0.34,4.97-1.03,6.63c-0.69,1.66-1.76,2.86-3.22,3.59v0.36h18.79v-0.36
		c-1.54-0.81-2.7-2.01-3.47-3.59c-0.77-1.58-1.16-3.79-1.16-6.63V30.29c0-2.92,0.39-5.17,1.16-6.75c0.77-1.58,1.93-2.7,3.47-3.35
		v-0.37h-18.79V20.19z"/>
</g>
</svg>
